<?xml version="1.0" encoding="utf-8"?>
<!-- Generator: Adobe Illustrator 26.0.3, SVG Export Plug-In . SVG Version: 6.00 Build 0)  -->
<svg version="1.1" id="Layer_1" xmlns="http://www.w3.org/2000/svg" xmlns:xlink="http://www.w3.org/1999/xlink" x="0px" y="0px"
	 viewBox="0 0 1200 366" style="enable-background:new 0 0 1200 366;" xml:space="preserve">
<style type="text/css">
	.st0{fill:#6EAA04;}
	.st1{fill:#0F1D3D;}
	.st2{display:none;}
	.st3{display:inline;}
	.st4{fill:#FFFFFF;}
</style>
<g id="green">
	<g>
		<g>
			<g id="XMLID_00000057867520599678566980000017814972676131192249_">
				<path class="st0" d="M97.01,63.6c9.49-3.98,20.24-5.98,32.26-5.98s22.77,1.99,32.26,5.98c9.49,3.99,17.49,9.63,24,16.95
					c4.76,5.34,8.68,11.48,11.79,18.43c3.12-6.94,7.08-13.08,11.87-18.43c6.57-7.31,14.6-12.96,24.09-16.95
					c9.49-3.98,20.24-5.98,32.26-5.98s22.77,1.99,32.26,5.98c5.18,2.18,9.91,4.85,14.21,8.02c-23.93-37.06-66.35-61.7-114.69-61.7
					c-48.42,0-90.9,24.72-114.81,61.89C86.89,68.55,91.72,65.82,97.01,63.6z"/>
			</g>
			<g id="XMLID_00000182495121218449440800000015227130477517797781_">
				<g>
					<path class="st0" d="M265.55,74.43c-9.33,0-17.54,1.58-24.41,4.69c-6.79,3.08-12.53,7.52-17.06,13.21
						c-4.6,5.77-8.12,12.86-10.47,21.08c-2.39,8.38-3.61,17.87-3.61,28.19c0,10.43,1.21,19.94,3.61,28.27
						c2.34,8.16,5.86,15.19,10.46,20.91c4.52,5.64,10.26,10.03,17.05,13.06c6.87,3.07,15.09,4.62,24.44,4.62
						c9.34,0,17.56-1.55,24.43-4.62c6.79-3.03,12.53-7.42,17.05-13.05c4.59-5.71,8.08-12.74,10.37-20.88
						c2.34-8.34,3.53-17.86,3.53-28.29c0-10.32-1.19-19.82-3.54-28.22c-2.29-8.2-5.78-15.28-10.38-21.05
						c-4.53-5.69-10.27-10.14-17.06-13.21C283.09,76.01,274.87,74.43,265.55,74.43z"/>
				</g>
			</g>
			<g id="XMLID_00000143615249357282922140000010024703781452957331_">
				<path class="st0" d="M297.81,219.38c-9.49,3.93-20.24,5.89-32.26,5.89c-12.02,0-22.77-1.96-32.26-5.89
					c-9.49-3.93-17.52-9.55-24.09-16.86c-4.8-5.34-8.75-11.47-11.87-18.38c-3.11,6.91-7.04,13.04-11.79,18.38
					c-6.51,7.31-14.52,12.93-24,16.86c-9.49,3.93-20.24,5.89-32.26,5.89c-12.02,0-22.77-1.96-32.26-5.89
					c-5.22-2.16-9.99-4.83-14.32-8.01c23.95,37.01,66.33,61.61,114.63,61.61c48.22,0,90.54-24.51,114.51-61.42
					C307.59,214.65,302.92,217.26,297.81,219.38z"/>
			</g>
			<g id="XMLID_37_">
				<g>
					<path class="st0" d="M129.27,74.42c-9.33,0-17.55,1.58-24.42,4.69c-6.8,3.08-12.54,7.52-17.07,13.21
						c-4.6,5.78-8.12,12.88-10.47,21.09c-2.4,8.38-3.61,17.87-3.61,28.2c0,10.43,1.21,19.94,3.61,28.27
						c2.34,8.15,5.87,15.19,10.46,20.91c4.52,5.64,10.26,10.03,17.05,13.06l0,0c6.87,3.07,15.1,4.62,24.44,4.62
						s17.57-1.55,24.44-4.62c6.8-3.03,12.53-7.42,17.06-13.06c4.59-5.71,8.08-12.74,10.37-20.89c2.34-8.34,3.53-17.86,3.53-28.3
						c0-10.33-1.19-19.82-3.53-28.22c-2.29-8.2-5.79-15.29-10.38-21.06c-4.53-5.69-10.27-10.14-17.07-13.21
						C146.81,76,138.6,74.42,129.27,74.42z"/>
				</g>
			</g>
		</g>
		<g>
			<g>
				<path class="st1" d="M450.03,217.24c-13.58,0-26.06-3.06-37.09-9.08l0,0c-11.07-6.05-19.87-14.76-26.15-25.9
					c-6.27-11.11-9.45-24.16-9.45-38.76c0-14.45,3.27-27.41,9.72-38.52c6.46-11.14,15.39-19.8,26.55-25.76
					c11.11-5.94,23.72-8.95,37.47-8.95s26.35,3.01,37.47,8.95c11.15,5.95,20.08,14.58,26.54,25.63c6.46,11.04,9.73,24.04,9.73,38.66
					s-3.36,27.67-9.99,38.8c-6.64,11.13-15.74,19.83-27.06,25.87C476.48,214.18,463.78,217.24,450.03,217.24z M450.81,93.7
					c-8.35,0-16.09,1.86-23,5.51c-6.87,3.63-12.46,9.25-16.61,16.7c-4.17,7.48-6.29,16.76-6.29,27.58c0,11,2.07,20.37,6.16,27.85
					c4.06,7.45,9.56,13.07,16.34,16.7c6.82,3.65,14.43,5.51,22.6,5.51c8.18,0,15.97-1.9,23.14-5.64l0,0
					c7.13-3.72,12.98-9.4,17.39-16.86c4.42-7.47,6.66-16.75,6.66-27.55s-2.2-20.08-6.53-27.56c-4.32-7.46-10.04-13.09-17-16.72
					C466.69,95.55,459,93.7,450.81,93.7z"/>
			</g>
			<g>
				<path class="st1" d="M450.03,357.38c-13.54,0-25.98-2.69-36.97-8.01l0,0c-11.07-5.35-19.86-13.06-26.14-22.91
					c-6.29-9.86-9.48-21.44-9.48-34.4c0-12.83,3.28-24.33,9.75-34.2c6.46-9.85,15.38-17.52,26.53-22.78
					c11.08-5.24,23.65-7.89,37.35-7.89s26.26,2.65,37.35,7.89c11.13,5.26,20.06,12.88,26.52,22.66c6.48,9.8,9.76,21.34,9.76,34.32
					s-3.37,24.56-10.02,34.43c-6.63,9.84-15.73,17.54-27.04,22.88C476.39,354.69,463.74,357.38,450.03,357.38z M450.81,248.11
					c-8.4,0-16.18,1.65-23.12,4.9c-6.88,3.22-12.47,8.19-16.62,14.77c-4.15,6.58-6.26,14.75-6.26,24.28
					c0,9.69,2.06,17.93,6.13,24.51c4.06,6.59,9.57,11.55,16.36,14.77c6.86,3.24,14.5,4.89,22.72,4.89s16.05-1.69,23.26-5.01l0,0
					c7.15-3.3,13-8.32,17.41-14.92c4.39-6.58,6.62-14.74,6.62-24.24c0-9.51-2.19-17.67-6.5-24.25c-4.32-6.6-10.05-11.57-17.01-14.79
					C466.78,249.76,459.04,248.11,450.81,248.11z"/>
			</g>
			<path class="st1" d="M1110.75,45.9c-4.48,0-8.32-1.57-11.41-4.67l0,0c-3.08-3.09-4.64-6.91-4.64-11.36s1.56-8.27,4.64-11.36
				c3.1-3.1,6.94-4.67,11.41-4.67c4.31,0,8.02,1.57,11.04,4.68c2.99,3.09,4.51,6.91,4.51,11.35s-1.52,8.26-4.51,11.35
				C1118.78,44.33,1115.07,45.9,1110.75,45.9z"/>
			<rect x="705.15" y="8.62" class="st1" width="27.2" height="206.39"/>
			<rect x="1042.12" y="9.07" class="st1" width="26.31" height="205.94"/>
			<rect x="1097.22" y="63.86" class="st1" width="26.31" height="151.15"/>
			<g>
				<path class="st1" d="M823.45,217.24c-13.58,0-26.06-3.06-37.09-9.08l0,0c-11.07-6.05-19.87-14.76-26.15-25.9
					c-6.27-11.11-9.45-24.16-9.45-38.76c0-14.45,3.27-27.41,9.72-38.52c6.46-11.14,15.39-19.8,26.55-25.76
					c11.11-5.94,23.72-8.95,37.47-8.95s26.36,3.01,37.47,8.95c11.15,5.95,20.08,14.58,26.54,25.63c6.46,11.04,9.73,24.05,9.73,38.66
					c0,14.62-3.36,27.67-9.99,38.8s-15.73,19.83-27.05,25.87C849.89,214.18,837.2,217.24,823.45,217.24z M824.23,93.7
					c-8.35,0-16.09,1.86-23,5.51c-6.87,3.63-12.45,9.25-16.6,16.7c-4.17,7.48-6.29,16.76-6.29,27.58c0,11,2.07,20.37,6.16,27.85
					c4.06,7.45,9.56,13.07,16.34,16.7c6.82,3.65,14.43,5.51,22.6,5.51c8.18,0,15.97-1.9,23.14-5.64c7.13-3.73,12.99-9.4,17.39-16.86
					c4.42-7.47,6.66-16.75,6.66-27.55s-2.2-20.08-6.53-27.56c-4.32-7.46-10.04-13.09-17-16.72C840.11,95.55,832.41,93.7,824.23,93.7
					z"/>
			</g>
			<g>
				<path class="st1" d="M952.41,217.24c-13.58,0-26.06-3.06-37.09-9.08l0,0c-11.07-6.04-19.87-14.76-26.16-25.9
					c-6.27-11.12-9.45-24.16-9.45-38.76c0-14.45,3.27-27.41,9.72-38.52c6.46-11.13,15.39-19.8,26.55-25.76
					c11.11-5.94,23.72-8.95,37.47-8.95c13.75,0,26.36,3.01,37.47,8.95c11.15,5.95,20.07,14.57,26.54,25.63
					c6.46,11.04,9.73,24.05,9.73,38.66c0,14.62-3.36,27.67-9.99,38.8s-15.73,19.83-27.05,25.87
					C978.86,214.18,966.16,217.24,952.41,217.24z M953.19,93.7c-8.35,0-16.09,1.86-23,5.51c-6.87,3.63-12.45,9.25-16.6,16.7
					c-4.17,7.48-6.29,16.76-6.29,27.58c0,11,2.07,20.37,6.16,27.85c4.06,7.45,9.56,13.07,16.34,16.7c6.82,3.65,14.43,5.51,22.6,5.51
					c8.18,0,15.97-1.9,23.14-5.64l0,0c7.13-3.72,12.99-9.4,17.4-16.86c4.42-7.47,6.66-16.75,6.66-27.55s-2.2-20.08-6.53-27.56
					c-4.33-7.46-10.05-13.09-17-16.72C969.07,95.55,961.38,93.7,953.19,93.7z"/>
			</g>
			<path class="st1" d="M684.58,143.49c0-14.61-3.27-27.62-9.72-38.66c-6.47-11.06-15.4-19.68-26.54-25.63
				c-11.11-5.94-23.72-8.95-37.47-8.95s-26.35,3.01-37.47,8.95c-11.16,5.96-20.09,14.63-26.54,25.76
				c-6.45,11.11-9.72,24.07-9.72,38.52c0,14.61,3.18,27.64,9.45,38.76c6.28,11.14,15.08,19.86,26.16,25.9
				c11.03,6.03,23.51,9.08,37.09,9.08c9.63,0,18.73-1.53,27.2-4.5v-27.35c-1.32,0.89-2.65,1.77-4.07,2.51
				c-7.17,3.74-14.95,5.64-23.14,5.64c-8.18,0-15.78-1.85-22.6-5.51c-6.78-3.63-12.28-9.25-16.34-16.7
				c-4.09-7.48-6.17-16.85-6.17-27.85c0-10.82,2.12-20.1,6.29-27.58c4.15-7.45,9.73-13.07,16.6-16.7c6.91-3.66,14.65-5.51,23-5.51
				c8.18,0,15.88,1.86,22.88,5.52c6.95,3.63,12.67,9.26,17,16.72c4.34,7.48,6.53,16.76,6.53,27.56c0,0.28-0.02,0.55-0.02,0.82v2.11
				v55.65v12.94h27.55v-68.58h-0.03C684.52,145.45,684.58,144.48,684.58,143.49z"/>
		</g>
	</g>
</g>
<g id="white" class="st2">
	<g class="st3">
		<g>
			<g id="XMLID_00000017515961248231545650000001453970951605606075_">
				<path class="st4" d="M97.01,63.6c9.49-3.98,20.24-5.98,32.26-5.98s22.77,1.99,32.26,5.98c9.49,3.99,17.49,9.63,24,16.95
					c4.76,5.34,8.68,11.48,11.79,18.43c3.12-6.94,7.08-13.08,11.87-18.43c6.57-7.31,14.6-12.96,24.09-16.95
					c9.49-3.98,20.24-5.98,32.26-5.98s22.77,1.99,32.26,5.98c5.18,2.18,9.91,4.85,14.21,8.02c-23.93-37.06-66.35-61.7-114.69-61.7
					c-48.42,0-90.9,24.72-114.81,61.89C86.89,68.55,91.72,65.82,97.01,63.6z"/>
			</g>
			<g id="XMLID_00000083079139934059812210000016709523730551883670_">
				<g>
					<path class="st4" d="M265.55,74.43c-9.33,0-17.54,1.58-24.41,4.69c-6.79,3.08-12.53,7.52-17.06,13.21
						c-4.6,5.77-8.12,12.86-10.47,21.08c-2.39,8.38-3.61,17.87-3.61,28.19c0,10.43,1.21,19.94,3.61,28.27
						c2.34,8.16,5.86,15.19,10.46,20.91c4.52,5.64,10.26,10.03,17.05,13.06c6.87,3.07,15.09,4.62,24.44,4.62
						c9.34,0,17.56-1.55,24.43-4.62c6.79-3.03,12.53-7.42,17.05-13.05c4.59-5.71,8.08-12.74,10.37-20.88
						c2.34-8.34,3.53-17.86,3.53-28.29c0-10.32-1.19-19.82-3.54-28.22c-2.29-8.2-5.78-15.28-10.38-21.05
						c-4.53-5.69-10.27-10.14-17.06-13.21C283.09,76.01,274.87,74.43,265.55,74.43z"/>
				</g>
			</g>
			<g id="XMLID_00000160155561061494805270000005799061464278494604_">
				<path class="st4" d="M297.81,219.38c-9.49,3.93-20.24,5.89-32.26,5.89c-12.02,0-22.77-1.96-32.26-5.89
					c-9.49-3.93-17.52-9.55-24.09-16.86c-4.8-5.34-8.75-11.47-11.87-18.38c-3.11,6.91-7.04,13.04-11.79,18.38
					c-6.51,7.31-14.52,12.93-24,16.86c-9.49,3.93-20.24,5.89-32.26,5.89c-12.02,0-22.77-1.96-32.26-5.89
					c-5.22-2.16-9.99-4.83-14.32-8.01c23.95,37.01,66.33,61.61,114.63,61.61c48.22,0,90.54-24.51,114.51-61.42
					C307.59,214.65,302.92,217.26,297.81,219.38z"/>
			</g>
			<g id="XMLID_00000016757619344882111250000016941594133067100573_">
				<g>
					<path class="st4" d="M129.27,74.42c-9.33,0-17.55,1.58-24.42,4.69c-6.8,3.08-12.54,7.52-17.07,13.21
						c-4.6,5.78-8.12,12.88-10.47,21.09c-2.4,8.38-3.61,17.87-3.61,28.2c0,10.43,1.21,19.94,3.61,28.27
						c2.34,8.15,5.87,15.19,10.46,20.91c4.52,5.64,10.26,10.03,17.05,13.06l0,0c6.87,3.07,15.1,4.62,24.44,4.62
						s17.57-1.55,24.44-4.62c6.8-3.03,12.53-7.42,17.06-13.06c4.59-5.71,8.08-12.74,10.37-20.89c2.34-8.34,3.53-17.86,3.53-28.3
						c0-10.33-1.19-19.82-3.53-28.22c-2.29-8.2-5.79-15.29-10.38-21.06c-4.53-5.69-10.27-10.14-17.07-13.21
						C146.81,76,138.6,74.42,129.27,74.42z"/>
				</g>
			</g>
		</g>
		<g>
			<g>
				<path class="st4" d="M450.03,217.24c-13.58,0-26.06-3.06-37.09-9.08l0,0c-11.07-6.05-19.87-14.76-26.15-25.9
					c-6.27-11.11-9.45-24.16-9.45-38.76c0-14.45,3.27-27.41,9.72-38.52c6.46-11.14,15.39-19.8,26.55-25.76
					c11.11-5.94,23.72-8.95,37.47-8.95s26.35,3.01,37.47,8.95c11.15,5.95,20.08,14.58,26.54,25.63c6.46,11.04,9.73,24.04,9.73,38.66
					s-3.36,27.67-9.99,38.8c-6.64,11.13-15.74,19.83-27.06,25.87C476.48,214.18,463.78,217.24,450.03,217.24z M450.81,93.7
					c-8.35,0-16.09,1.86-23,5.51c-6.87,3.63-12.46,9.25-16.61,16.7c-4.17,7.48-6.29,16.76-6.29,27.58c0,11,2.07,20.37,6.16,27.85
					c4.06,7.45,9.56,13.07,16.34,16.7c6.82,3.65,14.43,5.51,22.6,5.51c8.18,0,15.97-1.9,23.14-5.64l0,0
					c7.13-3.72,12.98-9.4,17.39-16.86c4.42-7.47,6.66-16.75,6.66-27.55s-2.2-20.08-6.53-27.56c-4.32-7.46-10.04-13.09-17-16.72
					C466.69,95.55,459,93.7,450.81,93.7z"/>
			</g>
			<g>
				<path class="st4" d="M450.03,357.38c-13.54,0-25.98-2.69-36.97-8.01l0,0c-11.07-5.35-19.86-13.06-26.14-22.91
					c-6.29-9.86-9.48-21.44-9.48-34.4c0-12.83,3.28-24.33,9.75-34.2c6.46-9.85,15.38-17.52,26.53-22.78
					c11.08-5.24,23.65-7.89,37.35-7.89s26.26,2.65,37.35,7.89c11.13,5.26,20.06,12.88,26.52,22.66c6.48,9.8,9.76,21.34,9.76,34.32
					s-3.37,24.56-10.02,34.43c-6.63,9.84-15.73,17.54-27.04,22.88C476.39,354.69,463.74,357.38,450.03,357.38z M450.81,248.11
					c-8.4,0-16.18,1.65-23.12,4.9c-6.88,3.22-12.47,8.19-16.62,14.77c-4.15,6.58-6.26,14.75-6.26,24.28
					c0,9.69,2.06,17.93,6.13,24.51c4.06,6.59,9.57,11.55,16.36,14.77c6.86,3.24,14.5,4.89,22.72,4.89s16.05-1.69,23.26-5.01l0,0
					c7.15-3.3,13-8.32,17.41-14.92c4.39-6.58,6.62-14.74,6.62-24.24c0-9.51-2.19-17.67-6.5-24.25c-4.32-6.6-10.05-11.57-17.01-14.79
					C466.78,249.76,459.04,248.11,450.81,248.11z"/>
			</g>
			<path class="st4" d="M1110.75,45.9c-4.48,0-8.32-1.57-11.41-4.67l0,0c-3.08-3.09-4.64-6.91-4.64-11.36s1.56-8.27,4.64-11.36
				c3.1-3.1,6.94-4.67,11.41-4.67c4.31,0,8.02,1.57,11.04,4.68c2.99,3.09,4.51,6.91,4.51,11.35s-1.52,8.26-4.51,11.35
				C1118.78,44.33,1115.07,45.9,1110.75,45.9z"/>
			<rect x="705.15" y="8.62" class="st4" width="27.2" height="206.39"/>
			<rect x="1042.12" y="9.07" class="st4" width="26.31" height="205.94"/>
			<rect x="1097.22" y="63.86" class="st4" width="26.31" height="151.15"/>
			<g>
				<path class="st4" d="M823.45,217.24c-13.58,0-26.06-3.06-37.09-9.08l0,0c-11.07-6.05-19.87-14.76-26.15-25.9
					c-6.27-11.11-9.45-24.16-9.45-38.76c0-14.45,3.27-27.41,9.72-38.52c6.46-11.14,15.39-19.8,26.55-25.76
					c11.11-5.94,23.72-8.95,37.47-8.95s26.36,3.01,37.47,8.95c11.15,5.95,20.08,14.58,26.54,25.63c6.46,11.04,9.73,24.05,9.73,38.66
					c0,14.62-3.36,27.67-9.99,38.8s-15.73,19.83-27.05,25.87C849.89,214.18,837.2,217.24,823.45,217.24z M824.23,93.7
					c-8.35,0-16.09,1.86-23,5.51c-6.87,3.63-12.45,9.25-16.6,16.7c-4.17,7.48-6.29,16.76-6.29,27.58c0,11,2.07,20.37,6.16,27.85
					c4.06,7.45,9.56,13.07,16.34,16.7c6.82,3.65,14.43,5.51,22.6,5.51c8.18,0,15.97-1.9,23.14-5.64c7.13-3.73,12.99-9.4,17.39-16.86
					c4.42-7.47,6.66-16.75,6.66-27.55s-2.2-20.08-6.53-27.56c-4.32-7.46-10.04-13.09-17-16.72C840.11,95.55,832.41,93.7,824.23,93.7
					z"/>
			</g>
			<g>
				<path class="st4" d="M952.41,217.24c-13.58,0-26.06-3.06-37.09-9.08l0,0c-11.07-6.04-19.87-14.76-26.16-25.9
					c-6.27-11.12-9.45-24.16-9.45-38.76c0-14.45,3.27-27.41,9.72-38.52c6.46-11.13,15.39-19.8,26.55-25.76
					c11.11-5.94,23.72-8.95,37.47-8.95c13.75,0,26.36,3.01,37.47,8.95c11.15,5.95,20.07,14.57,26.54,25.63
					c6.46,11.04,9.73,24.05,9.73,38.66c0,14.62-3.36,27.67-9.99,38.8s-15.73,19.83-27.05,25.87
					C978.86,214.18,966.16,217.24,952.41,217.24z M953.19,93.7c-8.35,0-16.09,1.86-23,5.51c-6.87,3.63-12.45,9.25-16.6,16.7
					c-4.17,7.48-6.29,16.76-6.29,27.58c0,11,2.07,20.37,6.16,27.85c4.06,7.45,9.56,13.07,16.34,16.7c6.82,3.65,14.43,5.51,22.6,5.51
					c8.18,0,15.97-1.9,23.14-5.64l0,0c7.13-3.72,12.99-9.4,17.4-16.86c4.42-7.47,6.66-16.75,6.66-27.55s-2.2-20.08-6.53-27.56
					c-4.33-7.46-10.05-13.09-17-16.72C969.07,95.55,961.38,93.7,953.19,93.7z"/>
			</g>
			<path class="st4" d="M684.58,143.49c0-14.61-3.27-27.62-9.72-38.66c-6.47-11.06-15.4-19.68-26.54-25.63
				c-11.11-5.94-23.72-8.95-37.47-8.95s-26.35,3.01-37.47,8.95c-11.16,5.96-20.09,14.63-26.54,25.76
				c-6.45,11.11-9.72,24.07-9.72,38.52c0,14.61,3.18,27.64,9.45,38.76c6.28,11.14,15.08,19.86,26.16,25.9
				c11.03,6.03,23.51,9.08,37.09,9.08c9.63,0,18.73-1.53,27.2-4.5v-27.35c-1.32,0.89-2.65,1.77-4.07,2.51
				c-7.17,3.74-14.95,5.64-23.14,5.64c-8.18,0-15.78-1.85-22.6-5.51c-6.78-3.63-12.28-9.25-16.34-16.7
				c-4.09-7.48-6.17-16.85-6.17-27.85c0-10.82,2.12-20.1,6.29-27.58c4.15-7.45,9.73-13.07,16.6-16.7c6.91-3.66,14.65-5.51,23-5.51
				c8.18,0,15.88,1.86,22.88,5.52c6.95,3.63,12.67,9.26,17,16.72c4.34,7.48,6.53,16.76,6.53,27.56c0,0.28-0.02,0.55-0.02,0.82v2.11
				v55.65v12.94h27.55v-68.58h-0.03C684.52,145.45,684.58,144.48,684.58,143.49z"/>
		</g>
	</g>
</g>
</svg>
