<svg width="68" height="40" viewBox="0 0 68 40" fill="none" xmlns="http://www.w3.org/2000/svg">
<path d="M0 35.7492C0 34.1881 1.07567 33.104 2.50991 33.104C6.01471 33.104 4.5019 37.8728 6.89119 37.8728C7.84734 37.8728 8.48478 37.0489 8.48478 35.8781C8.48478 32.9727 6.33343 32.1921 6.33343 29.765V17.5821C6.33343 15.6741 4.81951 15.2404 4.81951 14.2443V14.1142C4.81951 13.7239 5.09839 13.5071 5.61631 13.2035L10.7147 10.5162C11.7107 9.99581 12.3083 10.6029 12.3083 11.3835V31.7621C12.3083 33.9737 11.8701 35.6649 11.0733 37.0525C9.9179 38.8738 8.40399 40.0001 5.73472 40.0001C2.38928 39.9989 0 38.5678 0 35.7492ZM5.01871 3.88149C5.01871 1.7133 6.57246 0.108826 8.92301 0.108826C11.2736 0.108826 12.8262 1.7133 12.8262 3.88149C12.8262 6.09185 11.2725 7.69632 8.92301 7.69632C6.57357 7.69632 5.01871 6.09185 5.01871 3.88149Z" fill="#733E2B"/>
<path d="M50.7903 30.7202V30.8937C50.7903 31.3707 50.4317 31.6308 49.9138 31.6308H43.0226C42.4648 31.6308 42.1063 31.3707 42.1063 30.8937V30.7202C42.1063 29.6361 43.6202 29.2892 43.5007 27.4245L43.1023 19.4901C42.9031 14.5912 41.7477 12.8133 39.6362 12.8133C37.7648 12.8133 36.49 14.7201 36.4092 17.3231C36.5287 17.9736 36.5685 18.6674 36.5685 19.4046V27.4257C36.5685 29.2904 37.9629 29.6373 37.9629 30.7214V30.8949C37.9629 31.3719 37.6044 31.632 37.0865 31.632H30.1953C29.6773 31.632 29.2789 31.3719 29.2789 30.8949V30.7214C29.2789 29.6373 30.7121 29.2904 30.7121 27.4257V18.971C30.7121 14.9381 29.2789 12.8145 27.2471 12.8145C25.0559 12.8145 23.8209 14.896 23.8209 17.6279V27.427C23.8209 29.2916 25.534 29.6385 25.534 30.7226V30.8961C25.534 31.3731 25.1754 31.6332 24.6177 31.6332H17.2086C16.6907 31.6332 16.2923 31.3731 16.2923 30.8961V30.7226C16.2923 29.6385 18.0054 29.2916 18.0054 27.427V17.3244C18.0054 15.4163 16.0532 15.1995 16.0532 14.1154V13.942C16.0532 13.5083 16.4118 13.2915 16.8899 13.0313L21.9097 10.5174C22.826 9.99705 23.3041 10.6041 23.3041 11.4281V13.4662C24.4594 11.5581 26.4514 10.344 28.8009 10.344C31.6295 10.344 34.0586 11.6882 35.4132 14.2467C36.4889 11.775 38.7996 10.344 41.4688 10.344C45.0932 10.344 48.3999 12.5989 48.8779 19.666L49.356 27.3836C49.4755 29.2892 50.7903 29.6361 50.7903 30.7202Z" fill="#733E2B"/>
<path d="M57.2554 27.6057C57.6645 25.1354 59.4614 24.3071 61.3706 24.7139C63.241 25.1133 64.6516 26.6254 64.2425 29.0957C63.841 31.5231 62.0441 32.3515 60.1727 31.952C58.2635 31.5452 56.8539 30.0331 57.2554 27.6057ZM62.1196 1.80598C62.629 -1.2721 68.484 -0.112923 67.9681 3.00927C67.3346 6.59954 65.3531 15.4674 62.9431 21.9091C62.5945 22.8219 60.7306 22.3796 60.6529 21.4201C60.6184 14.4565 61.5983 5.19529 62.1196 1.80598Z" fill="#733E2B"/>
</svg>
